<svg xmlns="http://www.w3.org/2000/svg" width="512" height="512" viewBox="0 0 512 512">
  <rect width="512" height="512" rx="64" fill="#3730a3"/>
  <g transform="translate(128, 80)">
    <path d="M128 0C128 0 256 42 256 170C256 298 128 340 128 340C128 340 0 298 0 170C0 42 128 0 128 0Z" fill="white" opacity="0.9"/>
    <path d="M128 42C128 42 213 74 213 170C213 266 128 298 128 298C128 298 43 266 43 170C43 74 128 42 128 42Z" fill="#3730a3" opacity="0.2"/>
    <line x1="128" y1="64" x2="128" y2="288" stroke="white" stroke-width="4" opacity="0.5"/>
    <line x1="64" y1="128" x2="192" y2="128" stroke="white" stroke-width="3" opacity="0.3"/>
    <line x1="74" y1="170" x2="182" y2="170" stroke="white" stroke-width="3" opacity="0.3"/>
    <line x1="85" y1="212" x2="171" y2="212" stroke="white" stroke-width="3" opacity="0.3"/>
  </g>
</svg>
